<svg width="25" height="25" viewBox="0 0 25 25" fill="none" xmlns="http://www.w3.org/2000/svg">
<path d="M1.04163 4.16667H4.16663L6.24996 7.29167" stroke="white" stroke-width="2" stroke-linecap="round"/>
<path d="M6.25 7.29166H19.7917L18.2292 16.6667H7.8125L6.25 7.29166Z" stroke="white" stroke-width="2"/>
<path d="M9.375 22.3958C10.2379 22.3958 10.9375 21.6963 10.9375 20.8333C10.9375 19.9704 10.2379 19.2708 9.375 19.2708C8.51206 19.2708 7.8125 19.9704 7.8125 20.8333C7.8125 21.6963 8.51206 22.3958 9.375 22.3958Z" fill="white"/>
<path d="M17.7084 22.3958C18.5713 22.3958 19.2709 21.6963 19.2709 20.8333C19.2709 19.9704 18.5713 19.2708 17.7084 19.2708C16.8454 19.2708 16.1459 19.9704 16.1459 20.8333C16.1459 21.6963 16.8454 22.3958 17.7084 22.3958Z" fill="white"/>
</svg>
