<svg width="50" height="50" viewBox="0 0 50 50" fill="none" xmlns="http://www.w3.org/2000/svg">
<path d="M29 38.5L19 47L19 30L29 38.5Z" fill="#1F7D63"/>
<path d="M31 30L21 38.5L31 47" fill="#1F7D63"/>
<path d="M19 31L25 39L31 31" fill="#1F7D63"/>
<path d="M25 31.25C31.9036 31.25 37.5 25.6536 37.5 18.75C37.5 11.8464 31.9036 6.25 25 6.25C18.0964 6.25 12.5 11.8464 12.5 18.75C12.5 25.6536 18.0964 31.25 25 31.25Z" stroke="#1F7D63" stroke-width="1.33333"/>
<path d="M25 26.5625C29.3147 26.5625 32.8125 23.0647 32.8125 18.75C32.8125 14.4353 29.3147 10.9375 25 10.9375C20.6853 10.9375 17.1875 14.4353 17.1875 18.75C17.1875 23.0647 20.6853 26.5625 25 26.5625Z" stroke="#1F7D63" stroke-width="1.33333"/>
</svg>
